<svg width="256" height="256" viewBox="0 0 16 16" fill="none" xmlns="http://www.w3.org/2000/svg">
    <rect width="16" height="16" fill="white"/>
    <rect x="5" y="4" width="1" height="1" fill="#A5D6A7"/>
    <rect x="6" y="4" width="1" height="1" fill="#A5D6A7"/>
    <rect x="7" y="4" width="1" height="1" fill="#A5D6A7"/>
    <rect x="8" y="4" width="1" height="1" fill="#66BB6A"/>
    <rect x="4" y="5" width="1" height="1" fill="#A5D6A7"/>
    <rect x="5" y="5" width="1" height="1" fill="#E8F5E9"/>
    <rect x="6" y="5" width="1" height="1" fill="#E8F5E9"/>
    <rect x="7" y="5" width="1" height="1" fill="#A5D6A7"/>
    <rect x="8" y="5" width="1" height="1" fill="#66BB6A"/>
    <rect x="9" y="5" width="1" height="1" fill="#4CAF50"/>
    <rect x="4" y="6" width="1" height="1" fill="#A5D6A7"/>
    <rect x="5" y="6" width="1" height="1" fill="#E8F5E9"/>
    <rect x="6" y="6" width="1" height="1" fill="#E8F5E9"/>
    <rect x="7" y="6" width="1" height="1" fill="#A5D6A7"/>
    <rect x="8" y="6" width="1" height="1" fill="#4CAF50"/>
    <rect x="9" y="6" width="1" height="1" fill="#388E3C"/>
    <rect x="10" y="6" width="1" height="1" fill="#388E3C"/>
    <rect x="4" y="7" width="1" height="1" fill="#A5D6A7"/>
    <rect x="5" y="7" width="1" height="1" fill="#A5D6A7"/>
    <rect x="6" y="7" width="1" height="1" fill="#A5D6A7"/>
    <rect x="7" y="7" width="1" height="1" fill="#81C784"/>
    <rect x="8" y="7" width="1" height="1" fill="#4CAF50"/>
    <rect x="9" y="7" width="1" height="1" fill="#388E3C"/>
    <rect x="10" y="7" width="1" height="1" fill="#1B5E20"/>
    <rect x="11" y="7" width="1" height="1" fill="#1B5E20"/>
    <rect x="3" y="8" width="1" height="1" fill="#FFC107"/>
    <rect x="4" y="8" width="1" height="1" fill="#FFD54F"/>
    <rect x="5" y="8" width="1" height="1" fill="#A5D6A7"/>
    <rect x="6" y="8" width="1" height="1" fill="#81C784"/>
    <rect x="7" y="8" width="1" height="1" fill="#66BB6A"/>
    <rect x="8" y="8" width="1" height="1" fill="#4CAF50"/>
    <rect x="9" y="8" width="1" height="1" fill="#388E3C"/>
    <rect x="10" y="8" width="1" height="1" fill="#1B5E20"/>
    <rect x="11" y="8" width="1" height="1" fill="#1B5E20"/>
    <rect x="2" y="9" width="1" height="1" fill="#FFC107"/>
    <rect x="3" y="9" width="1" height="1" fill="#FFF176"/>
    <rect x="4" y="9" width="1" height="1" fill="#FFF176"/>
    <rect x="5" y="9" width="1" height="1" fill="#FFD54F"/>
    <rect x="6" y="9" width="1" height="1" fill="#A5D6A7"/>
    <rect x="7" y="9" width="1" height="1" fill="#81C784"/>
    <rect x="8" y="9" width="1" height="1" fill="#4CAF50"/>
    <rect x="9" y="9" width="1" height="1" fill="#388E3C"/>
    <rect x="10" y="9" width="1" height="1" fill="#388E3C"/>
    <rect x="2" y="10" width="1" height="1" fill="#FFB300"/>
    <rect x="3" y="10" width="1" height="1" fill="#FFF176"/>
    <rect x="4" y="10" width="1" height="1" fill="#FFFFFF"/>
    <rect x="5" y="10" width="1" height="1" fill="#FFD54F"/>
    <rect x="6" y="10" width="1" height="1" fill="#A5D6A7"/>
    <rect x="7" y="10" width="1" height="1" fill="#A5D6A7"/>
    <rect x="8" y="10" width="1" height="1" fill="#81C784"/>
    <rect x="9" y="10" width="1" height="1" fill="#66BB6A"/>
    <rect x="3" y="11" width="1" height="1" fill="#FFB300"/>
    <rect x="4" y="11" width="1" height="1" fill="#FFD54F"/>
    <rect x="5" y="11" width="1" height="1" fill="#FFC107"/>
    <rect x="6" y="11" width="1" height="1" fill="#A5D6A7"/>
    <rect x="7" y="11" width="1" height="1" fill="#A5D6A7"/>
    <rect x="8" y="11" width="1" height="1" fill="#81C784"/>
    <rect x="4" y="12" width="1" height="1" fill="#FFC107"/>
    <rect x="5" y="12" width="1" height="1" fill="#FFB300"/>
    <rect x="6" y="12" width="1" height="1" fill="#FFA000"/>
    <rect x="7" y="12" width="1" height="1" fill="#A5D6A7"/>
</svg>
